Coordinates																																							
version=1																																							
nRows=39																																							
nColumns=40																																							
inDegrees=yes																																							
																																							
Units are S.I. units (second, meters, Newtons, ...)																																							
Angles are in degrees.																																							
																																							
endheader																																							
time	pelvis_tilt	pelvis_list	pelvis_rotation	pelvis_tx	pelvis_ty	pelvis_tz	hip_flexion_r	hip_adduction_r	hip_rotation_r	knee_angle_r	knee_angle_r_beta	ankle_angle_r	subtalar_angle_r	mtp_angle_r	hip_flexion_l	hip_adduction_l	hip_rotation_l	knee_angle_l	knee_angle_l_beta	ankle_angle_l	subtalar_angle_l	mtp_angle_l	lumbar_extension	lumbar_bending	lumbar_rotation	arm_flex_r	arm_add_r	arm_rot_r	elbow_flex_r	pro_sup_r	wrist_flex_r	wrist_dev_r	arm_flex_l	arm_add_l	arm_rot_l	elbow_flex_l	pro_sup_l	wrist_flex_l	wrist_dev_l
0	0	0	0	0	0	0	72.80351858	-0.127837414	-30.61296031	45.03679143	0	10.59586352	13.56234019	0	26.89302037	-25.97238626	24.78093792	54.2409437	0	-5.337061935	-3.750115851	0	0	0	0	0	0	0	0	0	0	0	0	0	0	0	0	0	0
1	0	0	0	0	0	0	34.1500173	27.97298919	-10.32080365	21.60170056	0	27.79505826	-19.17410454	0	-20.42870058	-37.08122187	5.017064754	87.38117364	0	3.851785172	-14.01408939	0	0	0	0	0	0	0	0	0	0	0	0	0	0	0	0	0	0
2	0	0	0	0	0	0	10.37935599	16.72731025	8.733412095	41.67809874	0	11.18282255	7.904053349	0	28.33616543	11.32701772	-18.90706577	45.57697469	0	-18.84819139	-4.553243223	0	0	0	0	0	0	0	0	0	0	0	0	0	0	0	0	0	0
3	0	0	0	0	0	0	44.77287107	-6.624252918	10.5288969	24.55224435	0	-13.19722598	-4.184611339	0	2.44206669	-39.56771154	-36.39440045	36.77854124	0	-22.40268667	-17.23310777	0	0	0	0	0	0	0	0	0	0	0	0	0	0	0	0	0	0
4	0	0	0	0	0	0	-29.94213139	11.09002593	38.13868168	92.11456931	0	-31.48287378	-0.50773078	0	116.4651054	6.451611584	39.03511959	13.55018007	0	-38.17369528	7.60347583	0	0	0	0	0	0	0	0	0	0	0	0	0	0	0	0	0	0
5	0	0	0	0	0	0	107.2727458	-24.52134065	35.49486593	24.94064771	0	-7.635520334	-10.75163002	0	95.06286608	4.113321046	18.28486099	52.82894931	0	12.91777871	-1.31361107	0	0	0	0	0	0	0	0	0	0	0	0	0	0	0	0	0	0
6	0	0	0	0	0	0	87.4827739	17.94934452	-38.29700126	88.49085706	0	-22.29909034	10.97617669	0	71.58589466	27.75035117	-12.75147103	43.13517581	0	-29.88202007	-2.880818687	0	0	0	0	0	0	0	0	0	0	0	0	0	0	0	0	0	0
7	0	0	0	0	0	0	4.723177656	-44.56794668	-10.42151818	2.583618665	0	4.53237286	-7.01517366	0	24.7004545	16.57512102	-3.05239307	95.79834149	0	24.88790921	3.811041254	0	0	0	0	0	0	0	0	0	0	0	0	0	0	0	0	0	0
8	0	0	0	0	0	0	103.7229617	28.47489737	31.26947093	14.14390975	0	-13.94416257	8.070841383	0	-3.588136371	-46.50113688	9.192923153	6.074797378	0	-0.287781046	-16.18417129	0	0	0	0	0	0	0	0	0	0	0	0	0	0	0	0	0	0
9	0	0	0	0	0	0	-29.32193227	-20.16030217	23.19413232	24.250905	0	-4.914072276	-6.594072109	0	92.45383661	3.785781194	34.00836124	75.23888544	0	-20.53392668	2.292828443	0	0	0	0	0	0	0	0	0	0	0	0	0	0	0	0	0	0
10	0	0	0	0	0	0	69.54213368	22.0265404	-14.9897696	17.45635619	0	-39.30857289	-18.44858541	0	51.39823744	-12.93039757	-1.337537221	21.10237446	0	2.482239076	16.49505843	0	0	0	0	0	0	0	0	0	0	0	0	0	0	0	0	0	0
11	0	0	0	0	0	0	-19.85669708	-36.3159739	34.89144225	80.33355895	0	-27.0004131	0.191468871	0	13.63937321	-41.33842404	-3.4806609	53.64106202	0	-21.53542995	-6.377760499	0	0	0	0	0	0	0	0	0	0	0	0	0	0	0	0	0	0
12	0	0	0	0	0	0	79.25156805	5.212625995	-29.67806054	65.55557578	0	19.38814704	3.595753712	0	37.72242266	-17.11309761	38.84092996	80.70864501	0	-3.604721737	-10.8715402	0	0	0	0	0	0	0	0	0	0	0	0	0	0	0	0	0	0
13	0	0	0	0	0	0	118.8816393	-30.32535649	27.21403979	49.51299513	0	17.71066953	10.91736718	0	93.11382858	-2.022717361	-3.856826652	80.01123128	0	8.974504365	12.17635762	0	0	0	0	0	0	0	0	0	0	0	0	0	0	0	0	0	0
14	0	0	0	0	0	0	-22.31129565	25.38716974	37.96290355	53.55234058	0	-38.06892858	-12.01716714	0	98.62284985	26.35251112	-38.4862216	72.81051431	0	-36.95434084	8.964141348	0	0	0	0	0	0	0	0	0	0	0	0	0	0	0	0	0	0
15	0	0	0	0	0	0	-28.45196846	29.49074327	-33.04959076	77.80893815	0	-27.99800449	11.45961763	0	14.965898	-2.791698482	-24.36334024	48.47100727	0	-39.68873379	8.921053369	0	0	0	0	0	0	0	0	0	0	0	0	0	0	0	0	0	0
16	0	0	0	0	0	0	28.8156495	-7.459387447	18.72269122	88.88934196	0	-26.30408453	7.929971658	0	28.11342263	-2.48885411	-31.31430886	30.78476661	0	-7.006046756	-4.999121804	0	0	0	0	0	0	0	0	0	0	0	0	0	0	0	0	0	0
17	0	0	0	0	0	0	85.95916667	-19.13580285	-4.283831539	5.805580862	0	-37.017899	-0.946983127	0	16.46266327	-16.70290345	-21.71295987	49.95339634	0	-22.87493082	-11.01780974	0	0	0	0	0	0	0	0	0	0	0	0	0	0	0	0	0	0
18	0	0	0	0	0	0	-2.101151807	9.65930725	32.11435743	95.16296452	0	13.32428791	9.343852837	0	54.48049394	-31.56182638	32.47547941	45.46452798	0	4.286751343	6.901462951	0	0	0	0	0	0	0	0	0	0	0	0	0	0	0	0	0	0
19	0	0	0	0	0	0	104.8451256	12.21449989	-17.0714956	32.61355231	0	9.220341597	-2.955736072	0	42.82535684	-32.93832943	-15.04141899	0.243520954	0	-32.48261805	14.82404104	0	0	0	0	0	0	0	0	0	0	0	0	0	0	0	0	0	0
20	0	0	0	0	0	0	29.84263748	-20.15470771	-31.66132469	74.59100248	0	19.62678779	14.93713717	0	51.13279926	-23.40364461	-24.17326382	25.01633488	0	-10.8669295	-5.593506398	0	0	0	0	0	0	0	0	0	0	0	0	0	0	0	0	0	0
21	0	0	0	0	0	0	96.71690259	-39.66332623	14.48119103	81.48080891	0	-26.84944836	16.63876797	0	118.3805577	19.95929573	-29.21618775	97.47907692	0	-36.66681954	-17.11048377	0	0	0	0	0	0	0	0	0	0	0	0	0	0	0	0	0	0
22	0	0	0	0	0	0	114.1272712	26.29094565	-32.05013195	96.00838503	0	2.263185216	-15.08930725	0	90.24905779	-8.987312334	24.60962432	47.94136017	0	-23.05040822	6.835516452	0	0	0	0	0	0	0	0	0	0	0	0	0	0	0	0	0	0
23	0	0	0	0	0	0	36.71650919	-1.468834863	-37.35220253	3.680725773	0	17.57838905	-3.30052703	0	74.39627266	-27.62549141	-5.946237084	97.39989252	0	7.64332186	-4.431527788	0	0	0	0	0	0	0	0	0	0	0	0	0	0	0	0	0	0
24	0	0	0	0	0	0	-26.97875586	-47.77153029	-3.352754461	0.137392493	0	19.90050146	-11.49330705	0	2.94298619	-3.082309503	35.05445277	60.07662501	0	-29.34730855	-19.85272829	0	0	0	0	0	0	0	0	0	0	0	0	0	0	0	0	0	0
25	0	0	0	0	0	0	39.678276	-11.53488384	-13.85856908	32.7729161	0	-17.58137644	-12.61677709	0	105.7213779	0.918521859	-15.66062265	34.57106764	0	-21.86715067	-11.7917328	0	0	0	0	0	0	0	0	0	0	0	0	0	0	0	0	0	0
26	0	0	0	0	0	0	111.1400045	21.28826937	-24.40951317	66.37294864	0	-34.45616738	15.77680069	0	102.8157763	-43.63775086	-22.29150671	63.45472061	0	-6.093312112	-9.239114479	0	0	0	0	0	0	0	0	0	0	0	0	0	0	0	0	0	0
27	0	0	0	0	0	0	-17.17254583	-0.518356964	15.99136771	31.27556562	0	13.13681273	-5.045680489	0	56.93986594	0.6617534	-37.24273924	6.793741142	0	-6.508840276	-13.81525106	0	0	0	0	0	0	0	0	0	0	0	0	0	0	0	0	0	0
28	0	0	0	0	0	0	105.898793	10.73305587	27.05340638	24.0313809	0	-19.19539746	-5.167934332	0	10.70194363	26.10466322	18.94126799	92.77851501	0	1.133411971	2.689074444	0	0	0	0	0	0	0	0	0	0	0	0	0	0	0	0	0	0
29	0	0	0	0	0	0	74.53114685	-24.01806503	-29.5997255	13.50695588	0	-6.873179794	-7.60797118	0	-28.81675655	-7.852317904	-10.48899209	34.8500062	0	-16.24010293	14.73557347	0	0	0	0	0	0	0	0	0	0	0	0	0	0	0	0	0	0
30	0	0	0	0	0	0	8.695582711	2.33716469	-16.07265556	63.41462979	0	-23.6290659	-19.0183583	0	-12.54830285	-3.959044972	-8.549628535	83.40592666	0	-6.622522595	5.670046492	0	0	0	0	0	0	0	0	0	0	0	0	0	0	0	0	0	0
31	0	0	0	0	0	0	-27.69297074	-16.66662771	14.56706005	78.81885012	0	15.09557519	5.52496224	0	-13.89979091	-42.22625409	21.3727347	87.17981435	0	5.534675893	-15.84870878	0	0	0	0	0	0	0	0	0	0	0	0	0	0	0	0	0	0
32	0	0	0	0	0	0	105.0459873	-28.80308085	11.52754844	9.404710761	0	5.094382015	0.800706939	0	42.91203427	7.900630665	25.60571418	11.29256244	0	-31.9646684	6.071693612	0	0	0	0	0	0	0	0	0	0	0	0	0	0	0	0	0	0
33	0	0	0	0	0	0	59.50513041	-12.00676477	-10.17519458	37.11636565	0	-12.77155346	7.83525556	0	56.64613642	-13.30237444	35.6423077	83.19394609	0	-32.632036	-0.980653172	0	0	0	0	0	0	0	0	0	0	0	0	0	0	0	0	0	0
34	0	0	0	0	0	0	4.933406504	-11.39056526	37.07534595	89.92131883	0	-9.712890156	19.09400649	0	103.4245871	14.96383416	-11.36933166	27.27179558	0	16.39940449	1.167721714	0	0	0	0	0	0	0	0	0	0	0	0	0	0	0	0	0	0
35	0	0	0	0	0	0	104.9343195	29.25077651	-2.505520817	76.90150434	0	17.38485912	-10.56256663	0	15.0122385	-20.72325659	33.20383993	60.66747725	0	20.67365466	-5.010970434	0	0	0	0	0	0	0	0	0	0	0	0	0	0	0	0	0	0
36	0	0	0	0	0	0	-12.03569271	-28.19823421	31.84053258	44.74320116	0	6.188610709	-16.87294079	0	25.11188493	-48.7196879	16.02326607	5.251113787	0	5.258638051	7.813648969	0	0	0	0	0	0	0	0	0	0	0	0	0	0	0	0	0	0
37	0	0	0	0	0	0	98.57018186	21.5054193	-9.711210784	25.9737629	0	-20.37098996	11.69337592	0	60.44692003	10.19401578	-29.37709445	82.01141142	0	-25.48890438	-13.29656831	0	0	0	0	0	0	0	0	0	0	0	0	0	0	0	0	0	0
38	0	0	0	0	0	0	114.6986127	-8.591378654	-11.14200801	87.39882179	0	-27.57253893	6.679808579	0	43.5122305	-44.26317057	17.20120248	77.46431436	0	22.59125571	-8.928286445	0	0	0	0	0	0	0	0	0	0	0	0	0	0	0	0	0	0
